<mxfile host="app.diagrams.net" modified="2020-09-30T08:09:21.333Z" agent="5.0 (Windows NT 10.0; Win64; x64) AppleWebKit/537.36 (KHTML, like Gecko) Chrome/77.0.3865.90 Safari/537.36" etag="0vl6cO8zeSkWThh-GJoV" version="13.7.6" type="github">
  <diagram name="Page-1" id="9f46799a-70d6-7492-0946-bef42562c5a5">
    <mxGraphModel dx="2595" dy="3070" grid="1" gridSize="10" guides="1" tooltips="1" connect="1" arrows="1" fold="1" page="1" pageScale="1" pageWidth="1100" pageHeight="850" background="#ffffff" math="0" shadow="0">
      <root>
        <mxCell id="0" />
        <mxCell id="1" parent="0" />
        <mxCell id="lP-lKdRl4BMJ3n3Pa_Zw-13" value="" style="rounded=0;whiteSpace=wrap;html=1;strokeColor=#000000;strokeWidth=1;fillColor=#ffffff;" vertex="1" parent="1">
          <mxGeometry x="30" y="-1650" width="1020" height="460" as="geometry" />
        </mxCell>
        <mxCell id="lP-lKdRl4BMJ3n3Pa_Zw-14" value="&lt;font style=&quot;font-size: 26px&quot;&gt;&lt;b&gt;管理后台&lt;/b&gt;&lt;/font&gt;" style="text;html=1;strokeColor=none;fillColor=none;align=center;verticalAlign=middle;whiteSpace=wrap;rounded=0;" vertex="1" parent="1">
          <mxGeometry x="360" y="-1575" width="290" height="20" as="geometry" />
        </mxCell>
        <mxCell id="lP-lKdRl4BMJ3n3Pa_Zw-15" value="&lt;ul style=&quot;font-size: 23px&quot;&gt;&lt;li&gt;系统用户管理&lt;/li&gt;&lt;li&gt;系统组织管理&lt;/li&gt;&lt;li&gt;系统权限管理&lt;/li&gt;&lt;li&gt;系统角色管理&lt;/li&gt;&lt;/ul&gt;" style="text;html=1;whiteSpace=wrap;verticalAlign=middle;overflow=hidden;strokeWidth=1;fillColor=#dae8fc;strokeColor=#6c8ebf;" vertex="1" parent="1">
          <mxGeometry x="130" y="-1520" width="200" height="230" as="geometry" />
        </mxCell>
        <mxCell id="lP-lKdRl4BMJ3n3Pa_Zw-16" value="&lt;ul style=&quot;font-size: 23px&quot;&gt;&lt;li&gt;车辆机械管理&lt;/li&gt;&lt;li&gt;检验单位管理&lt;/li&gt;&lt;li&gt;机械所有人管理&lt;/li&gt;&lt;li&gt;合格证管理&lt;/li&gt;&lt;/ul&gt;" style="text;fillColor=#dae8fc;html=1;whiteSpace=wrap;verticalAlign=middle;overflow=hidden;strokeColor=#6c8ebf;" vertex="1" parent="1">
          <mxGeometry x="405" y="-1520" width="215" height="230" as="geometry" />
        </mxCell>
        <mxCell id="lP-lKdRl4BMJ3n3Pa_Zw-17" style="edgeStyle=orthogonalEdgeStyle;rounded=0;orthogonalLoop=1;jettySize=auto;html=1;exitX=0.5;exitY=1;exitDx=0;exitDy=0;" edge="1" parent="1" source="lP-lKdRl4BMJ3n3Pa_Zw-15" target="lP-lKdRl4BMJ3n3Pa_Zw-15">
          <mxGeometry relative="1" as="geometry" />
        </mxCell>
        <mxCell id="lP-lKdRl4BMJ3n3Pa_Zw-18" value="权限管理" style="text;strokeColor=none;fillColor=none;html=1;fontSize=24;fontStyle=1;verticalAlign=middle;align=center;" vertex="1" parent="1">
          <mxGeometry x="190" y="-1505" width="100" height="40" as="geometry" />
        </mxCell>
        <mxCell id="lP-lKdRl4BMJ3n3Pa_Zw-19" value="基础信息管理" style="text;strokeColor=none;fillColor=none;html=1;fontSize=24;fontStyle=1;verticalAlign=middle;align=center;" vertex="1" parent="1">
          <mxGeometry x="462.5" y="-1505" width="100" height="40" as="geometry" />
        </mxCell>
        <mxCell id="lP-lKdRl4BMJ3n3Pa_Zw-20" value="&lt;ul style=&quot;font-size: 23px&quot;&gt;&lt;li&gt;机械检验记录&lt;/li&gt;&lt;li&gt;发证记录&lt;/li&gt;&lt;li&gt;打印合格证&lt;/li&gt;&lt;/ul&gt;" style="text;fillColor=#dae8fc;html=1;whiteSpace=wrap;verticalAlign=middle;overflow=hidden;strokeColor=#6c8ebf;" vertex="1" parent="1">
          <mxGeometry x="710" y="-1520" width="190" height="220" as="geometry" />
        </mxCell>
        <mxCell id="lP-lKdRl4BMJ3n3Pa_Zw-21" value="&lt;font&gt;操作记录&lt;/font&gt;" style="text;html=1;fontSize=24;fontStyle=1;verticalAlign=middle;align=center;" vertex="1" parent="1">
          <mxGeometry x="750" y="-1505" width="100" height="40" as="geometry" />
        </mxCell>
        <mxCell id="lP-lKdRl4BMJ3n3Pa_Zw-24" style="edgeStyle=orthogonalEdgeStyle;rounded=0;orthogonalLoop=1;jettySize=auto;html=1;exitX=0.5;exitY=1;exitDx=0;exitDy=0;" edge="1" parent="1" source="lP-lKdRl4BMJ3n3Pa_Zw-16" target="lP-lKdRl4BMJ3n3Pa_Zw-16">
          <mxGeometry relative="1" as="geometry" />
        </mxCell>
        <mxCell id="lP-lKdRl4BMJ3n3Pa_Zw-25" value="" style="rounded=0;whiteSpace=wrap;html=1;strokeWidth=1;" vertex="1" parent="1">
          <mxGeometry x="15" y="-1050" width="1050" height="530" as="geometry" />
        </mxCell>
        <mxCell id="lP-lKdRl4BMJ3n3Pa_Zw-26" value="小程序/公众号" style="text;strokeColor=none;fillColor=none;html=1;fontSize=24;fontStyle=1;verticalAlign=middle;align=center;rounded=1;" vertex="1" parent="1">
          <mxGeometry x="470" y="-1100" width="100" height="40" as="geometry" />
        </mxCell>
        <mxCell id="lP-lKdRl4BMJ3n3Pa_Zw-30" value="尾气检验" style="text;html=1;fillColor=#dae8fc;align=center;verticalAlign=middle;whiteSpace=wrap;rounded=0;fontSize=23;strokeColor=#6c8ebf;" vertex="1" parent="1">
          <mxGeometry x="510" y="-990" width="160" height="40" as="geometry" />
        </mxCell>
        <mxCell id="lP-lKdRl4BMJ3n3Pa_Zw-31" value="机械检验" style="text;html=1;fillColor=#dae8fc;align=center;verticalAlign=middle;whiteSpace=wrap;rounded=0;fontSize=23;strokeColor=#6c8ebf;" vertex="1" parent="1">
          <mxGeometry x="512.5" y="-865" width="157.5" height="40" as="geometry" />
        </mxCell>
        <mxCell id="lP-lKdRl4BMJ3n3Pa_Zw-32" value="机械信息录入" style="text;html=1;fillColor=#dae8fc;align=center;verticalAlign=middle;whiteSpace=wrap;rounded=0;fontSize=23;strokeColor=#6c8ebf;" vertex="1" parent="1">
          <mxGeometry x="512.5" y="-760" width="157.5" height="40" as="geometry" />
        </mxCell>
        <mxCell id="lP-lKdRl4BMJ3n3Pa_Zw-33" value="工作人员登录" style="text;html=1;fillColor=none;align=center;verticalAlign=middle;whiteSpace=wrap;rounded=0;fontSize=23;fontColor=#000000;strokeColor=#000000;" vertex="1" parent="1">
          <mxGeometry x="70" y="-890" width="170" height="70" as="geometry" />
        </mxCell>
        <mxCell id="lP-lKdRl4BMJ3n3Pa_Zw-46" value="" style="rounded=1;whiteSpace=wrap;html=1;strokeWidth=1;fontSize=23;strokeColor=#666666;fontColor=#333333;fillColor=none;" vertex="1" parent="1">
          <mxGeometry x="440" y="-1020" width="297.5" height="360" as="geometry" />
        </mxCell>
        <mxCell id="lP-lKdRl4BMJ3n3Pa_Zw-48" value="&lt;h1&gt;登录&lt;/h1&gt;&lt;p&gt;根据不同账户角色获取不同的功能菜单&lt;/p&gt;" style="text;html=1;strokeColor=none;fillColor=none;spacing=5;spacingTop=-20;whiteSpace=wrap;overflow=hidden;rounded=0;fontSize=23;fontColor=#000000;" vertex="1" parent="1">
          <mxGeometry x="170" y="-780" width="200" height="200" as="geometry" />
        </mxCell>
        <mxCell id="lP-lKdRl4BMJ3n3Pa_Zw-49" value="" style="shape=singleArrow;whiteSpace=wrap;html=1;rounded=1;strokeColor=#000000;strokeWidth=1;fillColor=none;fontSize=23;fontColor=#000000;" vertex="1" parent="1">
          <mxGeometry x="270" y="-885" width="150" height="60" as="geometry" />
        </mxCell>
      </root>
    </mxGraphModel>
  </diagram>
</mxfile>
